#!OML:ASF F:\VICON\USERDATA\INSTALL\rory3\rory3.ASF
:FULLY-SPECIFIED
:DEGREES
26
root 0.5216535620146868 17.87357433557591 -10.009731567426789 -0.6830179694911602 -3.9476065192361594 -7.089963611420687
lfemur -27.327518686564282 -6.807592327974413 -10.79774024213368
ltibia 14.499146714605562
lfoot -11.052133162771835 4.414647567353319
ltoes -5.8282852821316915
rfemur 5.529304876667071 6.660189188504804 34.078348527485716
rtibia 35.49998050884701
rfoot -18.29528495177083 -5.896625183067886
rtoes 2.7248810970731148
lowerback 9.678846142784092 1.706788488359476 5.527962619126933
upperback -0.3524487246188348 3.3269036410723065 1.858675108033615
thorax -5.757818669183604 1.210171802631727 -1.6823661558121652
lowerneck -15.66910129590923 -3.0087144840681876 -1.2419582488022431
upperneck 23.118634842289218 -4.083901842712846 -0.5613038504868542
head 9.691798871301078 -2.022679674621725 -0.376870955587253
lclavicle -1.3860217333210297e-15 -1.842391825127748e-15
lhumerus -36.82989576144751 14.483529591800263 76.69729235264634
lradius 17.56530275088537
lwrist -5.592780040896759
lhand -27.084661170513662 22.647130737861655
lfingers 7.125019999999999
lthumb -0.6861890154775235 52.244311193119614
rclavicle -1.3880236175836188e-15 -1.8442520143019445e-15
rhumerus -20.148803817896546 -12.903164027358368 -80.39679020160372
rradius 28.153310060694633
rwrist -1.9050884218943338
rhand -18.673130308008442 22.917318427862114
rfingers 7.125019999999999
rthumb 7.725591452119245 -6.693037428101951
27
root 0.5839286029994416 17.86173349842669 -9.032585645986915 -0.7317968398148706 -4.0186325238828475 -6.7011935109617475
lfemur -26.57790805482967 -5.794222905138284 -11.427590064066628
ltibia 17.321457375356406
lfoot -9.969511449053819 2.490502731695055
ltoes -4.843350370833411
rfemur 7.571985916240751 7.1634697393224425 33.77205195909969
rtibia 40.426901714701515
rfoot -17.67869516011058 -4.565292804605459
rtoes 4.568056009385019
lowerback 9.353337326855938 1.8413033605968276 5.203943120132361
upperback -0.2679043445512318 3.417436044496553 1.7031459124588506
thorax -5.6086759390971554 1.276601562314781 -1.7088669063882966
lowerneck -15.412063650196329 -3.05261636369456 -1.2228232144900104
upperneck 23.155386662427244 -4.292748542713718 -0.5075387844784328
head 9.745454436423483 -2.085685074256591 -0.3598834122919669
lclavicle -1.3860208281017538e-15 -1.8423909839806704e-15
lhumerus -37.37149190359282 14.858351213825049 76.13117118375187
lradius 16.680780264142022
lwrist -5.306760676692253
lhand -26.940107985056773 22.437910731516517
lfingers 7.125019999999999
lthumb -0.3576767167213385 52.39029679003066
rclavicle -1.3880241260397663e-15 -1.844252486769129e-15
rhumerus -20.30949244992007 -13.18164208194458 -80.44773030190397
rradius 28.253705868330258
rwrist -1.5480066726589357
rhand -18.64576168223756 22.821957548580052
rfingers 7.125019999999999
rthumb 7.745153872143941 -6.865570160082553
28
root 0.6533269153786685 17.863050075801613 -7.774057045319024 -1.096548446600698 -3.9496865208112366 -6.057376283218913
lfemur -26.780748619504735 -3.692860841735785 -13.219639432964293
ltibia 22.99658661389457
lfoot -7.621112937179351 -0.16045698400185548
ltoes -4.795751143409464
rfemur 8.71277932488936 7.2899611792615975 33.00512105567111
rtibia 46.541704434100815
rfoot -15.605762910824929 -3.0897621250755156
rtoes 5.846023046573901
lowerback 9.149738289066747 1.9306694540552078 4.8739244015853345
upperback -0.19624407592999157 3.429502194333031 1.3646024561793362
thorax -5.457752147845357 1.3296751887332634 -1.557254095007157
lowerneck -15.32690562176257 -3.1784503286761154 -1.2812138500792782
upperneck 23.27189695064364 -4.48187173883066 -0.36441757163333993
head 9.789308130934161 -2.157080168392518 -0.38164270226541536
lclavicle -1.3860205019460095e-15 -1.8423906809105098e-15
lhumerus -37.577023227250216 14.555241450540258 76.2024439532666
lradius 16.79310883347287
lwrist -4.290189261702546
lhand -26.536502315499394 22.9943682413391
lfingers 7.125019999999999
lthumb -0.002231313964893067 52.81228243308208
rclavicle -1.3880241484101201e-15 -1.84425250755609e-15
rhumerus -21.288577507684618 -14.221591876776484 -80.32191991064856
rradius 28.326080266261528
rwrist -0.9522072301149187
rhand -18.771902652969594 22.551013720362384
rfingers 7.125019999999999
rthumb 7.600839680733567 -7.224870953244418
29
root 0.742236351869137 17.88618932885112 -6.292160654664864 -1.769534923463759 -3.724099496382814 -4.9487729060193235
lfemur -25.874452182233078 -3.112623289325164 -15.361267414603631
ltibia 27.640279041699475
lfoot -6.1489608835431415 -3.8231001846342947
ltoes -3.3059412039538922
rfemur 8.56060228800124 6.638991972524077 31.56525827851639
rtibia 53.1790530368195
rfoot -11.729719474805687 -1.6561781698035878
rtoes 6.330567304180708
lowerback 9.155455471827421 2.0037225960079788 4.023086343625867
upperback -0.15008238610339922 3.356585726789388 1.1164842816249805
thorax -5.360422876525232 1.3682477891318494 -1.361618668647303
lowerneck -15.24116533365749 -3.2370872818741616 -1.3720967832691071
upperneck 23.424673249974195 -4.583207870165072 -0.28076562253452453
head 9.845386014754565 -2.1771385340951914 -0.34755661758774115
lclavicle -1.3860207453841173e-15 -1.8423909071178594e-15
lhumerus -37.802173290874 14.115526829707523 76.46920696469833
lradius 17.921907475764485
lwrist -2.141949666518928
lhand -26.52669231691551 22.883384481117805
lfingers 7.125019999999999
lthumb -0.07102072683003802 52.66914080217044
rclavicle -1.3880240531823936e-15 -1.8442524190686636e-15
rhumerus -22.91231535858941 -15.399937407537717 -80.08659442872566
rradius 28.353945283827237
rwrist -0.43755070596240664
rhand -18.445081021550518 22.809191957488093
rfingers 7.125019999999999
rthumb 7.945349538832313 -6.9740589962764306
